<?xml version="1.0" encoding="UTF-8"?>
<svg width="236px" height="300px" viewBox="0 0 236 300" version="1.1" xmlns="http://www.w3.org/2000/svg" xmlns:xlink="http://www.w3.org/1999/xlink">
    <title>balloon2@2x</title>
    <g id="Page-2" stroke="none" stroke-width="1" fill="none" fill-rule="evenodd">
        <g id="iPad-Pro-11″" transform="translate(-299.000000, -653.000000)" fill="#FFE300">
            <g id="balloon2" transform="translate(299.000000, 653.000000)">
                <path d="M118,272 C183.1696,272 236,180.952051 236,116.571429 C236,52.1908063 183.1696,0 118,0 C52.8303995,0 0,52.1908063 0,116.571429 C0,180.952051 52.8303995,272 118,272 Z" id="Size2"></path>
                <path d="M127.272841,258.949401 L141.304542,279.723607 C145.323182,285.673283 143.757769,293.7542 137.808093,297.772841 C135.659065,299.224378 133.125015,300 130.5317,300 L102.4683,300 C95.2885978,300 89.4682995,294.179702 89.4682995,287 C89.4682995,284.406685 90.2439216,281.872636 91.6954583,279.723607 L105.727159,258.949401 C109.7458,252.999725 117.826717,251.434312 123.776393,255.452953 C125.154837,256.384007 126.341787,257.570957 127.272841,258.949401 Z" id="Triangle"></path>
            </g>
        </g>
    </g>
</svg>