<?xml version="1.0" encoding="UTF-8"?>
<svg width="118px" height="164px" viewBox="0 0 118 164" version="1.1" xmlns="http://www.w3.org/2000/svg" xmlns:xlink="http://www.w3.org/1999/xlink">
    <title>balloon1@2x</title>
    <g id="Page-2" stroke="none" stroke-width="1" fill="none" fill-rule="evenodd">
        <g id="iPad-Pro-11″" transform="translate(-358.000000, -789.000000)" fill="#FFE300">
            <g id="balloon1" transform="translate(358.000000, 789.000000)">
                <path d="M59,136 C91.5848002,136 118,90.4760254 118,58.2857143 C118,26.0954032 91.5848002,0 59,0 C26.4151998,0 0,26.0954032 0,58.2857143 C0,90.4760254 26.4151998,136 59,136 Z" id="Size1"></path>
                <path d="M68.2728412,122.949401 L82.3045417,143.723607 C86.3231825,149.673283 84.7577692,157.7542 78.8080933,161.772841 C76.6590649,163.224378 74.1250153,164 71.5317005,164 L43.4682995,164 C36.2885978,164 30.4682995,158.179702 30.4682995,151 C30.4682995,148.406685 31.2439216,145.872636 32.6954583,143.723607 L46.7271588,122.949401 C50.7457995,116.999725 58.8267168,115.434312 64.7763928,119.452953 C66.1548368,120.384007 67.3417869,121.570957 68.2728412,122.949401 Z" id="Triangle"></path>
            </g>
        </g>
    </g>
</svg>