<?xml version="1.0" encoding="UTF-8"?>
<svg width="591px" height="712px" viewBox="0 0 591 712" version="1.1" xmlns="http://www.w3.org/2000/svg" xmlns:xlink="http://www.w3.org/1999/xlink">
    <title>balloon4@2x</title>
    <g id="Page-2" stroke="none" stroke-width="1" fill="none" fill-rule="evenodd">
        <g id="iPad-Pro-11″" transform="translate(-121.000000, -241.000000)">
            <g id="balloon4" transform="translate(121.000000, 241.000000)">
                <path d="M296.5,684 C427.115343,684 533,501.904102 533,373.142857 C533,244.381613 427.115343,140 296.5,140 C165.884657,140 60,244.381613 60,373.142857 C60,501.904102 165.884657,684 296.5,684 Z" id="Size4" fill="#FFE300"></path>
                <path d="M295.5,680 C458.700144,680 591,452.380127 591,291.428571 C591,130.477016 458.700144,0 295.5,0 C132.299856,0 0,130.477016 0,291.428571 C0,452.380127 132.299856,680 295.5,680 Z" id="Frame"></path>
                <path d="M305.272841,670.949401 L319.304542,691.723607 C323.323182,697.673283 321.757769,705.7542 315.808093,709.772841 C313.659065,711.224378 311.125015,712 308.5317,712 L280.4683,712 C273.288598,712 267.4683,706.179702 267.4683,699 C267.4683,696.406685 268.243922,693.872636 269.695458,691.723607 L283.727159,670.949401 C287.7458,664.999725 295.826717,663.434312 301.776393,667.452953 C303.154837,668.384007 304.341787,669.570957 305.272841,670.949401 Z" id="Triangle" fill="#FFE300"></path>
            </g>
        </g>
    </g>
</svg>