<?xml version="1.0" encoding="UTF-8"?>
<svg width="355px" height="436px" viewBox="0 0 355 436" version="1.1" xmlns="http://www.w3.org/2000/svg" xmlns:xlink="http://www.w3.org/1999/xlink">
    <title>balloon3@2x</title>
    <g id="Page-2" stroke="none" stroke-width="1" fill="none" fill-rule="evenodd">
        <g id="iPad-Pro-11″" transform="translate(-240.000000, -517.000000)" fill="#FFE300">
            <g id="balloon3" transform="translate(240.000000, 517.000000)">
                <path d="M177.5,408 C275.530543,408 355,271.428076 355,174.857143 C355,78.2862095 275.530543,0 177.5,0 C79.4694569,0 0,78.2862095 0,174.857143 C0,271.428076 79.4694569,408 177.5,408 Z" id="Size3"></path>
                <path d="M186.272841,394.949401 L200.304542,415.723607 C204.323182,421.673283 202.757769,429.7542 196.808093,433.772841 C194.659065,435.224378 192.125015,436 189.5317,436 L161.4683,436 C154.288598,436 148.4683,430.179702 148.4683,423 C148.4683,420.406685 149.243922,417.872636 150.695458,415.723607 L164.727159,394.949401 C168.7458,388.999725 176.826717,387.434312 182.776393,391.452953 C184.154837,392.384007 185.341787,393.570957 186.272841,394.949401 Z" id="Triangle"></path>
            </g>
        </g>
    </g>
</svg>