<?xml version="1.0" encoding="UTF-8"?>
<svg width="473px" height="572px" viewBox="0 0 473 572" version="1.1" xmlns="http://www.w3.org/2000/svg" xmlns:xlink="http://www.w3.org/1999/xlink">
    <title>balloon4@2x</title>
    <g id="Page-2" stroke="none" stroke-width="1" fill="none" fill-rule="evenodd">
        <g id="iPad-Pro-11″" transform="translate(-181.000000, -381.000000)" fill="#FFE300">
            <g id="balloon4" transform="translate(181.000000, 381.000000)">
                <path d="M236.5,544 C367.115343,544 473,361.904102 473,233.142857 C473,104.381613 367.115343,0 236.5,0 C105.884657,0 0,104.381613 0,233.142857 C0,361.904102 105.884657,544 236.5,544 Z" id="Size4"></path>
                <path d="M245.272841,530.949401 L259.304542,551.723607 C263.323182,557.673283 261.757769,565.7542 255.808093,569.772841 C253.659065,571.224378 251.125015,572 248.5317,572 L220.4683,572 C213.288598,572 207.4683,566.179702 207.4683,559 C207.4683,556.406685 208.243922,553.872636 209.695458,551.723607 L223.727159,530.949401 C227.7458,524.999725 235.826717,523.434312 241.776393,527.452953 C243.154837,528.384007 244.341787,529.570957 245.272841,530.949401 Z" id="Triangle"></path>
            </g>
        </g>
    </g>
</svg>